# xmcd
#
# Track frame offsets:
#	150
#	18283
#	33547
#	53432
#	69681
#	91911
#	109547
#	123052
#	143048
#	158877
#	176842
#	193918
#	211820
#	226205
#	241791
#	264421
#	283991
#	305102
#	324645
#	338736
#	350891
#
# Disc length: 4793
#
# Revision: 1
# Processed by: cddbd v1.5.1PL0 Copyright (c) Steve Scherf et al.
# Submitted via: audiograbber 1.82.02
# Normalized: r0:DSETVAR1
#
DISCID=3212b715
DTITLE=Various Artist - Action Pac - Most Requested Vol. 16
DYEAR=2003
DGENRE=Hip-Hop
TTITLE0=Jay-Z - Change Clothes
TTITLE1=Missy Elliot Feat. Busta Rhymes - Pass The Dutch (Remix)
TTITLE2=Rah Digga Feat. Notorious B.I.G. and Missy - Party and Bullshit (Remix)
TTITLE3=G-Unit - Poppin Them Tags
TTITLE4=Nelly - Iz U
TTITLE5=Big Tymers Feat. R. Kelly - Gangsta Girl
TTITLE6=Camron - Hey Lady
TTITLE7=Ja Rule - Clap Back
TTITLE8=Loon Feat. Missy and P. Diddy - Hey Woo
TTITLE9=112 Feat. Ludacris - Hot and Wet
TTITLE10=Joe Feat. G-Unit - Ride With U
TTITLE11=Carl Thomas Feat. Ll Cool J - She Is
TTITLE12=Mya - Fallin
TTITLE13=Mary J. Blige Feat. Eve - Not Today
TTITLE14=Ashanti Feat. Ja Rule and Charli Baltimore - Rain On Me (Remix)
TTITLE15=Alicia Keys - You Don't Know My Name
TTITLE16=Beyonce - Me, Myself and I
TTITLE17=Cassidy Feat. R. Kelly - Hotel
TTITLE18=Ghostface Feat. Jadakiss - Run
TTITLE19=Camron - Halftime Show
TTITLE20=Busta Rhymes Feat. Chingy and Fat Joe - Put It On The Floor
EXTD=
EXTT0=
EXTT1=
EXTT2=
EXTT3=
EXTT4=
EXTT5=
EXTT6=
EXTT7=
EXTT8=
EXTT9=
EXTT10=
EXTT11=
EXTT12=
EXTT13=
EXTT14=
EXTT15=
EXTT16=
EXTT17=
EXTT18=
EXTT19=
EXTT20=
PLAYORDER=
